# xmcd
#
# Track frame offsets:
#	150
#	18742
#	34672
#	47092
#	65920
#	79752
#	95275
#	111125
#	128717
#	141687
#
# Disc length: 2137
#
# Revision: 4
# Processed by: cddbd v1.5.1PL0 Copyright (c) Steve Scherf et al.
# Submitted via: audiograbber 1.82.02
# Normalized: r3:DSETVAR1
#
DISCID=8e08570a
DTITLE=Various Artist - Today's Pure Country
DYEAR=1995
DGENRE=Country
TTITLE0=Suzy Boguss - Hey Cinderella
TTITLE1=Radney Foster - Nobody Wins
TTITLE2=Diamond Rio - This Romeo Ain't Got Julie Yet
TTITLE3=Vince Gill - No Future In The Past
TTITLE4=Patty Loveless - Hurt Me Bad (In A Real Good Way)
TTITLE5=Billy Dean - We Just Disagree
TTITLE6=Pam Tillis - Let That Pony Run
TTITLE7=John Berry - Your Love Amazes Me
TTITLE8=Chris LeDoux - Cadillac Ranch
TTITLE9=Tanya Tucker - Two Sparrows In A Hurricane
EXTD=Enviado por: Alfredo Armendariz de Alfred's Sound Systems de Nuevo Laredo, Tam. Mx 88250
EXTT0=
EXTT1=
EXTT2=
EXTT3=
EXTT4=
EXTT5=
EXTT6=
EXTT7=
EXTT8=
EXTT9=
PLAYORDER=
